<mxfile host="app.diagrams.net" modified="2021-04-26T18:24:14.844Z" agent="5.0 (X11)" etag="hX0xxQ6v_bYN9LDJDSYv" version="14.6.6" type="github">
  <diagram id="kFYetiA7J7ejAXUuufCZ" name="Page-1">
    <mxGraphModel dx="940" dy="531" grid="0" gridSize="10" guides="1" tooltips="1" connect="1" arrows="1" fold="1" page="1" pageScale="1" pageWidth="850" pageHeight="1100" math="0" shadow="0">
      <root>
        <mxCell id="0" />
        <mxCell id="1" parent="0" />
        <mxCell id="bLn_0AlIrvN3VFcL0cqq-51" style="edgeStyle=orthogonalEdgeStyle;rounded=0;orthogonalLoop=1;jettySize=auto;html=1;startArrow=none;startFill=0;endArrow=classic;endFill=1;entryX=0;entryY=0.5;entryDx=0;entryDy=0;" parent="1" source="bLn_0AlIrvN3VFcL0cqq-30" target="bLn_0AlIrvN3VFcL0cqq-4" edge="1">
          <mxGeometry relative="1" as="geometry">
            <mxPoint x="151" y="266" as="targetPoint" />
          </mxGeometry>
        </mxCell>
        <mxCell id="bLn_0AlIrvN3VFcL0cqq-30" value="&lt;div&gt;10-Digit&lt;/div&gt;&lt;div&gt;Keypad&lt;/div&gt;" style="rounded=1;whiteSpace=wrap;html=1;fillColor=#f8cecc;strokeColor=#b85450;" parent="1" vertex="1">
          <mxGeometry x="25" y="275.5" width="105" height="40" as="geometry" />
        </mxCell>
        <mxCell id="bLn_0AlIrvN3VFcL0cqq-2" value="" style="rounded=1;whiteSpace=wrap;html=1;" parent="1" vertex="1">
          <mxGeometry x="332" y="242" width="255" height="200" as="geometry" />
        </mxCell>
        <mxCell id="bLn_0AlIrvN3VFcL0cqq-59" style="edgeStyle=orthogonalEdgeStyle;rounded=0;orthogonalLoop=1;jettySize=auto;html=1;exitX=1;exitY=0.5;exitDx=0;exitDy=0;entryX=0;entryY=0.5;entryDx=0;entryDy=0;startArrow=none;startFill=0;endArrow=classic;endFill=1;" parent="1" source="bLn_0AlIrvN3VFcL0cqq-1" target="bLn_0AlIrvN3VFcL0cqq-25" edge="1">
          <mxGeometry relative="1" as="geometry">
            <mxPoint x="491" y="272" as="targetPoint" />
          </mxGeometry>
        </mxCell>
        <mxCell id="bLn_0AlIrvN3VFcL0cqq-1" value="&lt;div&gt;System&lt;/div&gt;&lt;div&gt;Controller&lt;/div&gt;&lt;div&gt;MCU&lt;/div&gt;" style="rounded=1;whiteSpace=wrap;html=1;" parent="1" vertex="1">
          <mxGeometry x="352" y="262" width="97" height="65" as="geometry" />
        </mxCell>
        <mxCell id="bLn_0AlIrvN3VFcL0cqq-3" value="Custom Circuit Card Assembly (CCA)" style="text;html=1;strokeColor=none;fillColor=none;align=center;verticalAlign=middle;whiteSpace=wrap;rounded=0;" parent="1" vertex="1">
          <mxGeometry x="446" y="307" width="150" height="20" as="geometry" />
        </mxCell>
        <mxCell id="bLn_0AlIrvN3VFcL0cqq-4" value="" style="rounded=1;whiteSpace=wrap;html=1;" parent="1" vertex="1">
          <mxGeometry x="173" y="251" width="120" height="89" as="geometry" />
        </mxCell>
        <mxCell id="bLn_0AlIrvN3VFcL0cqq-5" value="Camera" style="rounded=1;whiteSpace=wrap;html=1;fillColor=#f8cecc;strokeColor=#b85450;" parent="1" vertex="1">
          <mxGeometry x="193" y="179" width="80" height="40" as="geometry" />
        </mxCell>
        <mxCell id="bLn_0AlIrvN3VFcL0cqq-8" value="" style="endArrow=classic;html=1;entryX=0.5;entryY=0;entryDx=0;entryDy=0;exitX=0.5;exitY=1;exitDx=0;exitDy=0;" parent="1" source="bLn_0AlIrvN3VFcL0cqq-5" target="bLn_0AlIrvN3VFcL0cqq-4" edge="1">
          <mxGeometry width="50" height="50" relative="1" as="geometry">
            <mxPoint x="233" y="229.5" as="sourcePoint" />
            <mxPoint x="232.86" y="192.0000000000001" as="targetPoint" />
          </mxGeometry>
        </mxCell>
        <mxCell id="bLn_0AlIrvN3VFcL0cqq-9" value="" style="endArrow=classic;startArrow=classic;html=1;entryX=0;entryY=0.5;entryDx=0;entryDy=0;" parent="1" source="bLn_0AlIrvN3VFcL0cqq-4" target="bLn_0AlIrvN3VFcL0cqq-1" edge="1">
          <mxGeometry width="50" height="50" relative="1" as="geometry">
            <mxPoint x="292" y="316.8" as="sourcePoint" />
            <mxPoint x="342" y="316.8" as="targetPoint" />
            <Array as="points" />
          </mxGeometry>
        </mxCell>
        <mxCell id="bLn_0AlIrvN3VFcL0cqq-23" value="3" style="text;html=1;strokeColor=none;fillColor=none;align=center;verticalAlign=middle;whiteSpace=wrap;rounded=0;" parent="1" vertex="1">
          <mxGeometry x="300" y="273" width="40" height="20" as="geometry" />
        </mxCell>
        <mxCell id="bLn_0AlIrvN3VFcL0cqq-25" value="Electronic Strike Lock" style="rounded=1;whiteSpace=wrap;html=1;fillColor=#d5e8d4;strokeColor=#82b366;" parent="1" vertex="1">
          <mxGeometry x="616" y="251" width="81" height="36" as="geometry" />
        </mxCell>
        <mxCell id="bLn_0AlIrvN3VFcL0cqq-45" value="Status LEDs" style="rounded=1;whiteSpace=wrap;html=1;fillColor=#dae8fc;strokeColor=#6c8ebf;" parent="1" vertex="1">
          <mxGeometry x="60" y="392.25" width="63" height="35" as="geometry" />
        </mxCell>
        <mxCell id="bLn_0AlIrvN3VFcL0cqq-49" style="edgeStyle=orthogonalEdgeStyle;rounded=0;orthogonalLoop=1;jettySize=auto;html=1;entryX=0.25;entryY=0;entryDx=0;entryDy=0;startArrow=classic;startFill=1;endArrow=classic;endFill=1;" parent="1" source="bLn_0AlIrvN3VFcL0cqq-48" target="bLn_0AlIrvN3VFcL0cqq-1" edge="1">
          <mxGeometry relative="1" as="geometry" />
        </mxCell>
        <mxCell id="bLn_0AlIrvN3VFcL0cqq-48" value="Sonar Sensor" style="rounded=1;whiteSpace=wrap;html=1;fillColor=#e1d5e7;strokeColor=#9673a6;" parent="1" vertex="1">
          <mxGeometry x="324" y="172" width="105" height="40" as="geometry" />
        </mxCell>
        <mxCell id="bLn_0AlIrvN3VFcL0cqq-52" value="4" style="text;html=1;strokeColor=none;fillColor=none;align=center;verticalAlign=middle;whiteSpace=wrap;rounded=0;" parent="1" vertex="1">
          <mxGeometry x="347" y="222" width="40" height="20" as="geometry" />
        </mxCell>
        <mxCell id="bLn_0AlIrvN3VFcL0cqq-60" style="edgeStyle=orthogonalEdgeStyle;rounded=0;orthogonalLoop=1;jettySize=auto;html=1;exitX=0.5;exitY=1;exitDx=0;exitDy=0;startArrow=none;startFill=0;endArrow=classic;endFill=1;" parent="1" source="bLn_0AlIrvN3VFcL0cqq-2" target="bLn_0AlIrvN3VFcL0cqq-2" edge="1">
          <mxGeometry relative="1" as="geometry" />
        </mxCell>
        <mxCell id="UXuwkVDLv3Qg21Y00GF5-2" value="Circuit Design" style="rounded=1;whiteSpace=wrap;html=1;fillColor=#e1d5e7;strokeColor=#9673a6;" parent="1" vertex="1">
          <mxGeometry x="352" y="342.5" width="103" height="38.5" as="geometry" />
        </mxCell>
        <mxCell id="UXuwkVDLv3Qg21Y00GF5-4" value="PCB Layout/Routing" style="rounded=1;whiteSpace=wrap;html=1;fillColor=#d5e8d4;strokeColor=#82b366;" parent="1" vertex="1">
          <mxGeometry x="352" y="390" width="103.5" height="37" as="geometry" />
        </mxCell>
        <mxCell id="UXuwkVDLv3Qg21Y00GF5-6" value="Test/Verification" style="rounded=1;whiteSpace=wrap;html=1;fillColor=#d5e8d4;strokeColor=#82b366;" parent="1" vertex="1">
          <mxGeometry x="465" y="390" width="104" height="37" as="geometry" />
        </mxCell>
        <mxCell id="UXuwkVDLv3Qg21Y00GF5-7" value="Power Distribution" style="rounded=1;whiteSpace=wrap;html=1;fillColor=#e1d5e7;strokeColor=#9673a6;" parent="1" vertex="1">
          <mxGeometry x="465" y="343.25" width="104" height="37" as="geometry" />
        </mxCell>
        <mxCell id="UXuwkVDLv3Qg21Y00GF5-8" value="Facial Rec" style="rounded=1;whiteSpace=wrap;html=1;fillColor=#f8cecc;strokeColor=#b85450;" parent="1" vertex="1">
          <mxGeometry x="193" y="262" width="80" height="24.5" as="geometry" />
        </mxCell>
        <mxCell id="UXuwkVDLv3Qg21Y00GF5-10" value="&lt;div align=&quot;center&quot;&gt;&lt;br&gt;&lt;/div&gt;" style="rounded=1;whiteSpace=wrap;html=1;" parent="1" vertex="1">
          <mxGeometry x="376" y="460" width="167" height="113.75" as="geometry" />
        </mxCell>
        <mxCell id="UXuwkVDLv3Qg21Y00GF5-11" value="Reham" style="rounded=1;whiteSpace=wrap;html=1;fillColor=#e1d5e7;strokeColor=#9673a6;" parent="1" vertex="1">
          <mxGeometry x="392" y="489.25" width="63" height="35" as="geometry" />
        </mxCell>
        <mxCell id="UXuwkVDLv3Qg21Y00GF5-12" value="Adam" style="rounded=1;whiteSpace=wrap;html=1;fillColor=#d5e8d4;strokeColor=#82b366;" parent="1" vertex="1">
          <mxGeometry x="392" y="530.75" width="63" height="35" as="geometry" />
        </mxCell>
        <mxCell id="UXuwkVDLv3Qg21Y00GF5-13" value="Zach" style="rounded=1;whiteSpace=wrap;html=1;fillColor=#dae8fc;strokeColor=#6c8ebf;" parent="1" vertex="1">
          <mxGeometry x="462" y="489.25" width="63" height="35" as="geometry" />
        </mxCell>
        <mxCell id="UXuwkVDLv3Qg21Y00GF5-14" value="Moisess" style="rounded=1;whiteSpace=wrap;html=1;fillColor=#f8cecc;strokeColor=#b85450;" parent="1" vertex="1">
          <mxGeometry x="462" y="530.75" width="63" height="35" as="geometry" />
        </mxCell>
        <mxCell id="UXuwkVDLv3Qg21Y00GF5-15" value="Legend" style="text;html=1;strokeColor=none;fillColor=none;align=center;verticalAlign=middle;whiteSpace=wrap;rounded=0;fontStyle=5" parent="1" vertex="1">
          <mxGeometry x="428.5" y="463.75" width="62" height="20" as="geometry" />
        </mxCell>
        <mxCell id="45ifSvC3GuYhlyrgC8I3-1" value="" style="endArrow=none;html=1;" edge="1" parent="1">
          <mxGeometry width="50" height="50" relative="1" as="geometry">
            <mxPoint x="373" y="235.5" as="sourcePoint" />
            <mxPoint x="380" y="228.5" as="targetPoint" />
          </mxGeometry>
        </mxCell>
        <mxCell id="45ifSvC3GuYhlyrgC8I3-12" style="edgeStyle=orthogonalEdgeStyle;rounded=0;orthogonalLoop=1;jettySize=auto;html=1;entryX=0;entryY=0.75;entryDx=0;entryDy=0;startArrow=classic;startFill=1;" edge="1" parent="1" source="45ifSvC3GuYhlyrgC8I3-2" target="bLn_0AlIrvN3VFcL0cqq-1">
          <mxGeometry relative="1" as="geometry">
            <Array as="points">
              <mxPoint x="309" y="410" />
              <mxPoint x="309" y="311" />
            </Array>
          </mxGeometry>
        </mxCell>
        <mxCell id="45ifSvC3GuYhlyrgC8I3-2" value="" style="rounded=1;whiteSpace=wrap;html=1;" vertex="1" parent="1">
          <mxGeometry x="173" y="365.25" width="120" height="89" as="geometry" />
        </mxCell>
        <mxCell id="45ifSvC3GuYhlyrgC8I3-11" style="edgeStyle=orthogonalEdgeStyle;rounded=0;orthogonalLoop=1;jettySize=auto;html=1;entryX=0.5;entryY=1;entryDx=0;entryDy=0;" edge="1" parent="1" source="45ifSvC3GuYhlyrgC8I3-3" target="45ifSvC3GuYhlyrgC8I3-2">
          <mxGeometry relative="1" as="geometry" />
        </mxCell>
        <mxCell id="45ifSvC3GuYhlyrgC8I3-3" value="Microphone" style="rounded=1;whiteSpace=wrap;html=1;fillColor=#dae8fc;strokeColor=#6c8ebf;" vertex="1" parent="1">
          <mxGeometry x="193" y="484.25" width="80" height="40" as="geometry" />
        </mxCell>
        <mxCell id="45ifSvC3GuYhlyrgC8I3-4" value="Voice Rec" style="rounded=1;whiteSpace=wrap;html=1;fillColor=#dae8fc;strokeColor=#6c8ebf;" vertex="1" parent="1">
          <mxGeometry x="193" y="417.5" width="80" height="24.5" as="geometry" />
        </mxCell>
        <mxCell id="45ifSvC3GuYhlyrgC8I3-5" value="CPU" style="rounded=1;whiteSpace=wrap;html=1;arcSize=23;" vertex="1" parent="1">
          <mxGeometry x="203.5" y="299" width="59" height="30" as="geometry" />
        </mxCell>
        <mxCell id="45ifSvC3GuYhlyrgC8I3-7" value="" style="endArrow=none;html=1;" edge="1" parent="1">
          <mxGeometry width="50" height="50" relative="1" as="geometry">
            <mxPoint x="317.0000000000001" y="298" as="sourcePoint" />
            <mxPoint x="324" y="291" as="targetPoint" />
          </mxGeometry>
        </mxCell>
        <mxCell id="45ifSvC3GuYhlyrgC8I3-8" value="CPU" style="rounded=1;whiteSpace=wrap;html=1;arcSize=23;" vertex="1" parent="1">
          <mxGeometry x="203.5" y="377" width="59" height="30" as="geometry" />
        </mxCell>
        <mxCell id="45ifSvC3GuYhlyrgC8I3-9" style="edgeStyle=orthogonalEdgeStyle;rounded=0;orthogonalLoop=1;jettySize=auto;html=1;startArrow=classic;startFill=1;endArrow=none;endFill=0;entryX=0;entryY=0.5;entryDx=0;entryDy=0;exitX=1;exitY=0.5;exitDx=0;exitDy=0;" edge="1" parent="1" source="bLn_0AlIrvN3VFcL0cqq-45" target="45ifSvC3GuYhlyrgC8I3-2">
          <mxGeometry relative="1" as="geometry">
            <mxPoint x="170" y="421.75" as="targetPoint" />
            <mxPoint x="130" y="410" as="sourcePoint" />
          </mxGeometry>
        </mxCell>
        <mxCell id="45ifSvC3GuYhlyrgC8I3-13" value="3" style="text;html=1;strokeColor=none;fillColor=none;align=center;verticalAlign=middle;whiteSpace=wrap;rounded=0;" vertex="1" parent="1">
          <mxGeometry x="300" y="311" width="40" height="20" as="geometry" />
        </mxCell>
        <mxCell id="45ifSvC3GuYhlyrgC8I3-14" value="" style="endArrow=none;html=1;" edge="1" parent="1">
          <mxGeometry width="50" height="50" relative="1" as="geometry">
            <mxPoint x="317.0000000000002" y="314" as="sourcePoint" />
            <mxPoint x="324" y="307" as="targetPoint" />
          </mxGeometry>
        </mxCell>
        <mxCell id="45ifSvC3GuYhlyrgC8I3-16" value="2" style="text;html=1;strokeColor=none;fillColor=none;align=center;verticalAlign=middle;whiteSpace=wrap;rounded=0;" vertex="1" parent="1">
          <mxGeometry x="576" y="248" width="40" height="20" as="geometry" />
        </mxCell>
        <mxCell id="45ifSvC3GuYhlyrgC8I3-17" value="" style="endArrow=none;html=1;" edge="1" parent="1">
          <mxGeometry width="50" height="50" relative="1" as="geometry">
            <mxPoint x="593" y="273" as="sourcePoint" />
            <mxPoint x="600" y="266" as="targetPoint" />
          </mxGeometry>
        </mxCell>
      </root>
    </mxGraphModel>
  </diagram>
</mxfile>
